<svg xmlns="http://www.w3.org/2000/svg" fill="none" viewBox="0 0 32 32" aria-hidden="true"><path fill="#009FD1" d="M16 26a9.967 9.967 0 0 0 6.982-2.841.126.126 0 0 1 .178 0l4.154 4.155 4.312 4.312c.093.093-.003.248-.128.207l-6.882-2.294a.125.125 0 0 0-.106.013A15.925 15.925 0 0 1 16 32C7.163 32 0 24.837 0 16S7.163 0 16 0s16 7.163 16 16c0 3.774-1.307 7.243-3.493 9.98a.124.124 0 0 1-.184.009l-8.448-8.448c-.094-.093.002-.249.127-.207l5.369 1.79a.124.124 0 0 0 .157-.08c.307-.96.472-1.983.472-3.044 0-5.523-4.477-10-10-10S6 10.477 6 16s4.477 10 10 10Z"></path></svg>